<?xml version="1.0" encoding="utf-8"?>
<!-- Generator: Adobe Illustrator 24.0.2, SVG Export Plug-In . SVG Version: 6.00 Build 0)  -->
<svg version="1.1" id="Слой_1" xmlns="http://www.w3.org/2000/svg" xmlns:xlink="http://www.w3.org/1999/xlink" x="0px" y="0px"
	 viewBox="0 0 1189.98 495.67" style="enable-background:new 0 0 1189.98 495.67;" xml:space="preserve">
<style type="text/css">
	.st0{fill:#1C9CD8;}
	.st1{fill:#29ABE2;}
	.st2{font-family:'TwCenMT-Regular';}
	.st3{font-size:289.5002px;}
	.st4{font-size:224.1315px;}
</style>
<g>
	<path d="M113.98,426.6c-1.37-0.74-2.71-1.56-4.12-2.2c-10.51-4.76-21.04-9.48-31.56-14.21c0.11-0.47,0.21-0.94,0.32-1.41
		c0.81-0.3,1.69-0.99,2.41-0.85c9.27,1.81,18.44,4.62,27.8,5.48c32.01,2.96,64.16,5.57,93.35-12.59
		c11.92-7.42,20.55-17.72,25.86-30.77c1.66-4.09,4.64-7.98,5.05-12.16c1.02-10.3,1.26-20.72,1.16-31.08
		c-0.15-15.64-0.6-31.29-1.4-46.91c-0.6-11.62-1.84-23.22-3.04-34.8c-0.63-6.11,2.26-9.67,8.4-8.94
		c11.05,1.32,19.67,6.58,23.61,17.34c1.85,5.05,2.6,10.61,3.15,16.01c1.87,18.35,7.64,35.04,19.99,49.06
		c6,6.81,13.02,7.83,20.33,2.46c7.75-5.7,14.13-12.73,17.58-21.95c2.97-7.94,5.82-15.94,8.92-24.47c-6.23-1.78-11.85-3.21-17.36-5
		c-7.87-2.56-14.62-6.96-17.84-14.81c-1.41-3.42-1.47-7.72-0.96-11.47c0.27-1.95,2.23-4.04,5.96-2.61
		c7.17,2.75,14.76,4.42,22.18,6.54c0.16-0.39,0.32-0.79,0.48-1.18c-3.61-1.94-7.16-4.02-10.85-5.78
		c-9.92-4.72-17.7-11.86-21.37-22.12c-1.57-4.4-0.58-10.07,0.4-14.93c0.83-4.08,3.74-4.09,7.65-1.88
		c8.98,5.08,18.2,9.75,27.32,14.59c0.31-0.46,0.62-0.93,0.93-1.39c-5.68-5.22-11.31-10.52-17.07-15.66
		c-7.97-7.11-13.77-15.65-14.83-26.34c-0.53-5.37,0.43-11.18,2.06-16.37c1.44-4.58,5.36-4.58,8.96-1.24c6.91,6.43,14,12.68,21.01,19
		c0.26,0.23,0.51,0.47,0.77,0.7c0.06-0.37,0.12-0.74,0.19-1.11c-0.28-12.07-0.49-24.16,7.85-34.21c1.66-2.01,3.68-3.93,5.92-5.2
		c4.31-2.44,8.03-0.07,9.2,4.79c3.62,15.14,6.5,30.56,11.55,45.22c6.05,17.54,11.22,35.2,14.5,53.43
		c2.56,14.27,0.79,28.36-2.02,42.4c-0.2,1.02,0.03,2.13,0.06,3.19c-2.84,9.94-5.68,19.87-8.51,29.81
		c-2.57,5.46-5.1,10.94-7.72,16.38c-14.49,30.09-34.46,55.77-61.55,75.57c-39.41,28.8-83.54,39.43-131.81,33.66
		c-6.74-0.81-13.47-1.77-20.21-2.66C135.78,432.83,124.88,429.72,113.98,426.6z"/>
	<path class="st0" d="M269.4,47.99c6.6,3.32,13.29,6.46,19.77,10c24.85,13.57,45.67,31.91,63.27,53.99c0.41,0.51,0.71,1.1,1.28,2
		c-1.73,1.54-3.39,3.04-4.66,4.17c-9.2-7.35-17.79-14.65-26.84-21.33c-14.88-10.99-31.83-15.96-50.28-15.23
		c-23.6,0.94-42.75,12.11-59.78,27.35c-12.77,11.43-21.33,25.52-26.23,42.17c-6.06,20.61-4.88,40.46,2.13,60.6
		c3.41,9.8,9.96,17.48,14.74,26.31c22.89,42.26,11.32,98.18-31.04,128.8c-20.06,14.5-42.16,21.88-66.84,20.23
		c-17.1-1.14-32.52-7.35-46.93-16.87c-20.89-13.81-33.2-34.1-43.45-55.85C6.89,298.06,1.84,280.72,0.5,262.69
		c-0.83-11.09-0.47-22.3-0.02-33.43c0.41-10.1,1.66-20.17,2.54-30.25c3.1-10.55,6.2-21.11,9.3-31.66c1.23-1.82,3.04-3.48,3.59-5.49
		c3.74-13.64,11.21-25.38,18.95-36.85c18.83-27.89,43.67-49.35,73.04-65.46c24.57-13.48,50.52-22.53,78.99-23.55
		c12.79-0.46,25.42-0.93,38.04,1.8c4.47,0.97,9.18,0.81,13.77,1.17C248.93,41.97,259.16,44.98,269.4,47.99z M309.42,81.18
		c0.15-0.24,0.3-0.48,0.45-0.73c-0.52-0.48-1.01-1-1.57-1.44c-22.09-16.97-47.11-27.77-74.24-32.96
		c-13.52-2.58-27.61-3.45-41.4-3.14C154.33,43.79,120.43,57.65,89.6,80c-25.87,18.76-47.07,41.43-61.29,70.29
		c-9.11,18.5-15.35,37.87-18.85,58.19c-7.64,44.33,73.67,71.52,90.67-19.48c-1.79-1.92,21-92,85.5-117.5
		C248.13,50.01,307.25,80.34,309.42,81.18z"/>
	<text transform="matrix(1 0 0 1 393.6039 234.7815)" class="st1 st2 st3">CLEAN</text>
	<text transform="matrix(1 0 0 1 421.8266 433.3997)" class="st2 st4">WIZARD</text>
</g>
</svg>
